<svg width="11" height="10" viewBox="0 0 11 10" fill="none"
                     xmlns="http://www.w3.org/2000/svg">
                     <circle cx="5.90002" cy="5" r="5" fill="#3B82F6"></circle>
                     <path
                        d="M9.0316 3.11148C8.96395 3.06501 8.88763 3.03208 8.80701 3.01457C8.72639 2.99706 8.64304 2.99531 8.56173 3.00943C8.48042 3.02355 8.40274 3.05325 8.33313 3.09685C8.26352 3.14044 8.20334 3.19707 8.15602 3.2635L5.76573 6.61452L4.19847 5.5636C4.07278 5.47919 3.91807 5.44726 3.76839 5.47483C3.6187 5.5024 3.48631 5.58721 3.40033 5.7106C3.31434 5.83399 3.28182 5.98586 3.3099 6.1328C3.33798 6.27973 3.42438 6.4097 3.55008 6.4941L5.6509 7.90271C5.7156 7.94606 5.78872 7.97584 5.86569 7.99019C5.94265 8.00453 6.02181 8.00314 6.09819 7.98608C6.17967 7.9721 6.25754 7.94247 6.32733 7.89889C6.39712 7.85531 6.45746 7.79863 6.50489 7.73212L9.18656 3.97146C9.28214 3.83717 9.31949 3.67113 9.29042 3.50982C9.26134 3.34852 9.16822 3.20514 9.03151 3.1112"
                        fill="white"></path>
                  </svg>