 <svg width="12" height="14" viewBox="0 0 12 14" fill="none"
                     xmlns="http://www.w3.org/2000/svg">
                     <path
                        d="M8.5 10.6V11.8C8.5 12.1183 8.3683 12.4235 8.13388 12.6485C7.89946 12.8736 7.58152 13 7.25 13H2.25C1.91848 13 1.60054 12.8736 1.36612 12.6485C1.1317 12.4235 1 12.1183 1 11.8V5.2C1 4.88174 1.1317 4.57652 1.36612 4.35147C1.60054 4.12643 1.91848 4 2.25 4H3.5M3.5 2.2V9.4C3.5 9.71826 3.6317 10.0235 3.86612 10.2485C4.10054 10.4736 4.41848 10.6 4.75 10.6H9.75C10.0815 10.6 10.3995 10.4736 10.6339 10.2485C10.8683 10.0235 11 9.71826 11 9.4V4.1452C11 3.98534 10.9667 3.82709 10.9021 3.67975C10.8375 3.53241 10.7428 3.39894 10.6238 3.2872L8.55188 1.342C8.31835 1.12279 8.00473 1.00004 7.67813 1H4.75C4.41848 1 4.10054 1.12643 3.86612 1.35147C3.6317 1.57652 3.5 1.88174 3.5 2.2Z"
                        stroke="#6366F1" stroke-linecap="round" stroke-linejoin="round"></path>
                  </svg>