<svg width="101" height="75" viewBox="0 0 101 75" fill="none" xmlns="http://www.w3.org/2000/svg">
<rect width="3.1317" height="3.13172" transform="matrix(0.707116 0.707097 -0.707116 0.707097 2.21448 0)" fill="#EEF2FF"/>
<rect width="3.1317" height="3.13172" transform="matrix(0.707116 0.707097 -0.707116 0.707097 21.4348 0)" fill="#EEF2FF"/>
<rect width="3.1317" height="3.13172" transform="matrix(0.707116 0.707097 -0.707116 0.707097 40.6553 0)" fill="#EEF2FF"/>
<rect width="3.1317" height="3.13172" transform="matrix(0.707116 0.707097 -0.707116 0.707097 59.8756 0)" fill="#EEF2FF"/>
<rect width="3.1317" height="3.13172" transform="matrix(0.707116 0.707097 -0.707116 0.707097 79.0961 0)" fill="#EEF2FF"/>
<rect width="3.1317" height="3.13172" transform="matrix(0.707116 0.707097 -0.707116 0.707097 98.3163 0)" fill="#EEF2FF"/>
<rect width="3.1317" height="3.13172" transform="matrix(0.707116 0.707097 -0.707116 0.707097 2.21448 17.5488)" fill="#EEF2FF"/>
<rect width="3.1317" height="3.13172" transform="matrix(0.707116 0.707097 -0.707116 0.707097 2.21448 35.0986)" fill="#EEF2FF"/>
<rect width="3.1317" height="3.13172" transform="matrix(0.707116 0.707097 -0.707116 0.707097 2.21448 52.6475)" fill="#EEF2FF"/>
<rect width="3.1317" height="3.13172" transform="matrix(0.707116 0.707097 -0.707116 0.707097 2.21448 70.1963)" fill="#EEF2FF"/>
<rect width="3.1317" height="3.13172" transform="matrix(0.707116 0.707097 -0.707116 0.707097 21.4348 17.5488)" fill="#EEF2FF"/>
<rect width="3.1317" height="3.13172" transform="matrix(0.707116 0.707097 -0.707116 0.707097 21.4348 35.0986)" fill="#EEF2FF"/>
<rect width="3.1317" height="3.13172" transform="matrix(0.707116 0.707097 -0.707116 0.707097 21.4348 52.6475)" fill="#EEF2FF"/>
<rect width="3.1317" height="3.13172" transform="matrix(0.707116 0.707097 -0.707116 0.707097 21.4348 70.1963)" fill="#EEF2FF"/>
<rect width="3.1317" height="3.13172" transform="matrix(0.707116 0.707097 -0.707116 0.707097 40.6553 17.5488)" fill="#EEF2FF"/>
<rect width="3.1317" height="3.13172" transform="matrix(0.707116 0.707097 -0.707116 0.707097 40.6553 35.0986)" fill="#EEF2FF"/>
<rect width="3.1317" height="3.13172" transform="matrix(0.707116 0.707097 -0.707116 0.707097 40.6553 52.6475)" fill="#EEF2FF"/>
<rect width="3.1317" height="3.13172" transform="matrix(0.707116 0.707097 -0.707116 0.707097 40.6553 70.1963)" fill="#EEF2FF"/>
<rect width="3.1317" height="3.13172" transform="matrix(0.707116 0.707097 -0.707116 0.707097 59.8756 17.5488)" fill="#EEF2FF"/>
<rect width="3.1317" height="3.13172" transform="matrix(0.707116 0.707097 -0.707116 0.707097 59.8756 35.0986)" fill="#EEF2FF"/>
<rect width="3.1317" height="3.13172" transform="matrix(0.707116 0.707097 -0.707116 0.707097 59.8756 52.6475)" fill="#EEF2FF"/>
<rect width="3.1317" height="3.13172" transform="matrix(0.707116 0.707097 -0.707116 0.707097 59.8756 70.1963)" fill="#EEF2FF"/>
<rect width="3.1317" height="3.13172" transform="matrix(0.707116 0.707097 -0.707116 0.707097 79.0961 17.5488)" fill="#EEF2FF"/>
<rect width="3.1317" height="3.13172" transform="matrix(0.707116 0.707097 -0.707116 0.707097 79.0961 35.0986)" fill="#EEF2FF"/>
<rect width="3.1317" height="3.13172" transform="matrix(0.707116 0.707097 -0.707116 0.707097 79.0961 52.6475)" fill="#EEF2FF"/>
<rect width="3.1317" height="3.13172" transform="matrix(0.707116 0.707097 -0.707116 0.707097 79.0961 70.1963)" fill="#EEF2FF"/>
<rect width="3.1317" height="3.13172" transform="matrix(0.707116 0.707097 -0.707116 0.707097 98.3163 17.5488)" fill="#EEF2FF"/>
<rect width="3.1317" height="3.13172" transform="matrix(0.707116 0.707097 -0.707116 0.707097 98.3163 35.0986)" fill="#EEF2FF"/>
<rect width="3.1317" height="3.13172" transform="matrix(0.707116 0.707097 -0.707116 0.707097 98.3163 52.6475)" fill="#EEF2FF"/>
<rect width="3.1317" height="3.13172" transform="matrix(0.707116 0.707097 -0.707116 0.707097 98.3163 70.1963)" fill="#EEF2FF"/>
</svg>
