<svg width="12" height="12" viewBox="0 0 12 12" fill="none" xmlns="http://www.w3.org/2000/svg">
<path d="M11.7097 2.75423C11.5235 2.3131 11.255 1.91336 10.9193 1.57737C10.5833 1.24039 10.1872 0.972587 9.75251 0.788539C9.30173 0.596935 8.81824 0.49886 8.33012 0.50001C7.64532 0.50001 6.97719 0.691889 6.39657 1.05433C6.25766 1.14103 6.1257 1.23626 6.00069 1.34001C5.87567 1.23626 5.74371 1.14103 5.60481 1.05433C5.02419 0.691889 4.35605 0.50001 3.67125 0.50001C3.17814 0.50001 2.70031 0.59666 2.24887 0.788539C1.81271 0.973311 1.41961 1.2391 1.08207 1.57737C0.745914 1.91298 0.477385 2.31282 0.2917 2.75423C0.0986224 3.21332 0 3.70083 0 4.20256C0 4.67586 0.0944553 5.16906 0.281977 5.67079C0.438939 6.09008 0.663965 6.52501 0.951498 6.9642C1.40711 7.65922 2.03357 8.3841 2.81143 9.11893C4.10047 10.337 5.377 11.1784 5.43118 11.2125L5.76038 11.4286C5.90623 11.5238 6.09375 11.5238 6.2396 11.4286L6.56881 11.2125C6.62298 11.177 7.89813 10.337 9.18855 9.11893C9.96642 8.3841 10.5929 7.65922 11.0485 6.9642C11.336 6.52501 11.5624 6.09008 11.718 5.67079C11.9055 5.16906 12 4.67586 12 4.20256C12.0014 3.70083 11.9028 3.21332 11.7097 2.75423ZM6.00069 10.3043C6.00069 10.3043 1.05568 7.06227 1.05568 4.20256C1.05568 2.75423 2.22664 1.58022 3.67125 1.58022C4.68665 1.58022 5.5673 2.16012 6.00069 3.00723C6.43407 2.16012 7.31473 1.58022 8.33012 1.58022C9.77473 1.58022 10.9457 2.75423 10.9457 4.20256C10.9457 7.06227 6.00069 10.3043 6.00069 10.3043Z" fill="#6366F1"/>
</svg>
