<svg width="170" height="38" viewBox="0 0 170 38" fill="none" xmlns="http://www.w3.org/2000/svg">
    <path d="M12.4 15.9C18.5628 15.9 24.8 13.7703 24.8 9.7C24.8 5.6297 18.5628 3.5 12.4 3.5C6.2372 3.5 0 5.6297 0 9.7C0 13.7703 6.2372 15.9 12.4 15.9Z" fill="url(#paint0_linear_1548_2371)"/>
    <path d="M0 15.9C0 19.9703 6.2372 22.1 12.4 22.1C18.5628 22.1 24.8 19.9703 24.8 15.9V12.8C24.8 16.8703 18.5628 19 12.4 19C6.2372 19 0 16.8703 0 12.8V15.9Z" fill="url(#paint1_linear_1548_2371)"/>
    <path d="M0 22.1C0 26.1703 6.2372 28.3 12.4 28.3C18.5628 28.3 24.8 26.1703 24.8 22.1V19C24.8 23.0703 18.5628 25.2 12.4 25.2C6.2372 25.2 0 23.0703 0 19V22.1Z" fill="url(#paint2_linear_1548_2371)"/>
    <path d="M0 28.3C0 32.3703 6.2372 34.5 12.4 34.5C18.5628 34.5 24.8 32.3703 24.8 28.3V25.2C24.8 29.2703 18.5628 31.4 12.4 31.4C6.2372 31.4 0 29.2703 0 25.2V28.3Z" fill="url(#paint3_linear_1548_2371)"/>
    <path d="M42.656 15.2H39.136C39.136 16.4373 39.1254 17.5893 39.104 18.656C39.104 19.7013 39.104 20.6187 39.104 21.408C39.104 22.176 39.0934 22.8053 39.072 23.296C39.072 23.7867 39.072 24.0853 39.072 24.192C39.072 25.024 39.232 25.5787 39.552 25.856C39.872 26.1333 40.2454 26.272 40.672 26.272C40.992 26.272 41.3547 26.24 41.76 26.176C42.1654 26.112 42.5067 26.0267 42.784 25.92L42.976 26.272L42.656 27.328C42.08 27.648 41.4827 27.8933 40.864 28.064C40.2667 28.256 39.712 28.352 39.2 28.352C37.8987 28.352 36.9707 28.0533 36.416 27.456C35.8614 26.8587 35.584 26.0907 35.584 25.152C35.584 24.96 35.5947 24.5867 35.616 24.032C35.6374 23.456 35.6587 22.7413 35.68 21.888C35.7014 21.0133 35.7227 20.0107 35.744 18.88C35.7654 17.7493 35.776 16.5227 35.776 15.2H34.112L33.984 15.04V13.632L34.112 13.504L35.776 13.056C35.776 12.3733 35.7547 11.68 35.712 10.976C35.6907 10.2507 35.6587 9.54667 35.616 8.864L35.84 8.672L36.288 8.64C36.4374 8.64 36.64 8.62933 36.896 8.608C37.1734 8.58667 37.4614 8.56533 37.76 8.544C38.0587 8.50133 38.336 8.45867 38.592 8.416C38.8694 8.37333 39.072 8.33067 39.2 8.288L39.488 8.416C39.3814 8.94933 39.296 9.664 39.232 10.56C39.168 11.4347 39.136 12.2667 39.136 13.056L42.656 12.864L42.816 12.992V15.04L42.656 15.2ZM52.5733 12.8C53.832 12.8 54.952 13.024 55.9333 13.472C56.9146 13.8987 57.736 14.4853 58.3973 15.232C59.08 15.9573 59.592 16.8 59.9333 17.76C60.296 18.72 60.4773 19.712 60.4773 20.736C60.4773 21.7173 60.3173 22.6667 59.9973 23.584C59.6773 24.5013 59.1866 25.312 58.5253 26.016C57.864 26.72 57.0426 27.2853 56.0613 27.712C55.08 28.1387 53.9386 28.352 52.6373 28.352C51.2933 28.352 50.12 28.128 49.1173 27.68C48.1146 27.232 47.2826 26.6453 46.6213 25.92C45.9813 25.1947 45.5013 24.3733 45.1813 23.456C44.8613 22.5173 44.7013 21.5573 44.7013 20.576C44.7013 19.5307 44.8826 18.5387 45.2453 17.6C45.608 16.6613 46.12 15.84 46.7813 15.136C47.464 14.4107 48.2853 13.8453 49.2453 13.44C50.2266 13.0133 51.336 12.8 52.5733 12.8ZM52.6053 26.144C53.2666 26.144 53.8426 25.9947 54.3333 25.696C54.8453 25.376 55.272 24.9707 55.6133 24.48C55.9546 23.968 56.2 23.392 56.3493 22.752C56.52 22.0907 56.6053 21.4187 56.6053 20.736C56.6053 20.0747 56.5093 19.4133 56.3173 18.752C56.1466 18.0693 55.88 17.4613 55.5173 16.928C55.176 16.3947 54.7493 15.9573 54.2373 15.616C53.7253 15.2747 53.1386 15.104 52.4773 15.104C51.7946 15.104 51.1973 15.264 50.6853 15.584C50.1946 15.904 49.7893 16.32 49.4693 16.832C49.1493 17.344 48.904 17.92 48.7333 18.56C48.584 19.2 48.5093 19.8507 48.5093 20.512C48.5093 21.1947 48.5946 21.8667 48.7653 22.528C48.9573 23.1893 49.224 23.7973 49.5653 24.352C49.928 24.8853 50.3653 25.3227 50.8773 25.664C51.3893 25.984 51.9653 26.144 52.6053 26.144ZM62.1565 4.736L62.2845 4.608H63.8845C64.3752 4.608 64.8979 4.608 65.4525 4.608C66.0072 4.58667 66.4979 4.544 66.9245 4.48L68.0765 4.32L68.2685 4.928C68.2259 5.01333 68.1832 5.17333 68.1405 5.408C68.1192 5.62133 68.0979 5.856 68.0765 6.112C68.0765 6.368 68.0659 6.61333 68.0445 6.848C68.0445 7.08267 68.0445 7.264 68.0445 7.392C68.0445 7.73333 68.0339 8.05333 68.0125 8.352C68.0125 8.65067 68.0019 9.00267 67.9805 9.408C67.9805 9.81333 67.9699 10.304 67.9485 10.88C67.9485 11.456 67.9485 12.192 67.9485 13.088V19.2L71.3405 16.032C71.5752 15.7973 71.6925 15.5733 71.6925 15.36C71.6925 15.0187 71.2019 14.7627 70.2205 14.592L70.0925 14.464V13.44L70.2205 13.312C70.6259 13.3547 71.0312 13.3973 71.4365 13.44C71.8419 13.4827 72.2579 13.504 72.6845 13.504H74.6365C74.9992 13.504 75.3619 13.4827 75.7245 13.44C76.0872 13.3973 76.4499 13.3547 76.8125 13.312L76.9085 13.44V14.528L76.7485 14.688C76.5779 14.7307 76.3539 14.784 76.0765 14.848C75.8205 14.912 75.5859 15.008 75.3725 15.136C75.0525 15.328 74.7219 15.552 74.3805 15.808C74.0605 16.064 73.7299 16.3413 73.3885 16.64C73.0685 16.9387 72.7379 17.248 72.3965 17.568C72.0765 17.8667 71.7779 18.144 71.5005 18.4L70.7965 19.04L74.9565 24.16C75.2979 24.5867 75.6179 24.96 75.9165 25.28C76.2152 25.5787 76.5245 25.8347 76.8445 26.048C77.1645 26.2613 77.5059 26.432 77.8685 26.56C78.2312 26.688 78.6579 26.7627 79.1486 26.784L79.2445 26.912L79.3085 28L79.2445 28.128C78.7112 28.1707 78.1245 28.192 77.4845 28.192C76.8659 28.2133 76.2365 28.224 75.5965 28.224C75.1272 28.224 74.6899 28.0853 74.2845 27.808C73.8792 27.5093 73.5272 27.1787 73.2285 26.816L68.1405 20.544L67.9485 20.736C67.9485 21.4613 67.9592 22.208 67.9805 22.976C68.0019 23.7227 68.0339 24.352 68.0765 24.864C68.0979 25.312 68.1405 25.6533 68.2045 25.888C68.2685 26.1013 68.3859 26.2827 68.5565 26.432C68.7272 26.6027 68.9619 26.7093 69.2605 26.752C69.5805 26.7733 69.9005 26.784 70.2205 26.784L70.3805 26.944L70.4445 28L70.3805 28.128C70.2099 28.128 69.9752 28.1173 69.6765 28.096C69.3779 28.0747 69.0685 28.0533 68.7485 28.032C68.4285 28.032 68.1085 28.0213 67.7885 28C67.4899 28 67.2659 28 67.1165 28H65.3885C65.2392 28 65.0045 28 64.6845 28C64.3859 28.0213 64.0659 28.032 63.7245 28.032C63.4045 28.0533 63.0845 28.0747 62.7645 28.096C62.4659 28.1173 62.2419 28.128 62.0925 28.128L62.0605 28L62.1245 26.912L62.2205 26.784C62.5619 26.784 62.8925 26.7733 63.2125 26.752C63.5539 26.7093 63.8099 26.6027 63.9805 26.432C64.1512 26.2827 64.2579 26.0907 64.3005 25.856C64.3645 25.6213 64.4179 25.2907 64.4605 24.864C64.4819 24.6293 64.4925 24.3947 64.4925 24.16C64.5139 23.904 64.5245 23.616 64.5245 23.296C64.5459 22.976 64.5565 22.592 64.5565 22.144C64.5565 21.696 64.5565 21.152 64.5565 20.512V13.472C64.5565 12.5973 64.5565 11.8613 64.5565 11.264C64.5565 10.6453 64.5459 10.112 64.5245 9.664C64.5245 9.216 64.5139 8.82133 64.4925 8.48C64.4925 8.13867 64.4819 7.79733 64.4605 7.456C64.4392 7.22133 64.3752 7.01867 64.2685 6.848C64.1832 6.656 64.1085 6.51733 64.0445 6.432C63.8312 6.19733 63.5645 6.05866 63.2445 6.016C62.9459 5.952 62.6259 5.92 62.2845 5.92L62.1565 5.792V4.736ZM92.9955 19.84L92.2275 20.416C91.0755 20.416 89.9342 20.4267 88.8035 20.448C87.6942 20.4693 86.5529 20.48 85.3795 20.48H82.7555C82.7342 20.6293 82.7235 20.7787 82.7235 20.928C82.7235 21.056 82.7235 21.184 82.7235 21.312C82.7235 21.8667 82.8195 22.4213 83.0115 22.976C83.2035 23.5307 83.5022 24.032 83.9075 24.48C84.3342 24.9067 84.8675 25.2587 85.5075 25.536C86.1475 25.792 86.9262 25.92 87.8435 25.92C88.5049 25.92 89.1982 25.8347 89.9235 25.664C90.6702 25.472 91.3635 25.2267 92.0035 24.928L92.5475 25.152V26.304L92.2275 26.656C91.7155 27.0613 90.9582 27.4453 89.9555 27.808C88.9742 28.1707 87.9075 28.352 86.7555 28.352C85.6249 28.352 84.5902 28.1707 83.6515 27.808C82.7342 27.424 81.9342 26.8907 81.2515 26.208C80.5902 25.5253 80.0675 24.7147 79.6835 23.776C79.3209 22.8373 79.1395 21.792 79.1395 20.64C79.1395 19.4667 79.3315 18.4 79.7155 17.44C80.0995 16.48 80.6222 15.6587 81.2835 14.976C81.9662 14.2933 82.7555 13.76 83.6515 13.376C84.5689 12.992 85.5502 12.8 86.5955 12.8C87.1502 12.8 87.7689 12.8747 88.4515 13.024C89.1555 13.1733 89.8275 13.4613 90.4675 13.888C91.1075 14.2933 91.6835 14.88 92.1955 15.648C92.7075 16.3947 93.0595 17.3867 93.2515 18.624L92.9955 19.84ZM86.6275 15.2C85.5822 15.2 84.7395 15.52 84.0995 16.16C83.4809 16.7787 83.0862 17.504 82.9155 18.336H84.5155C85.2622 18.336 85.9982 18.3253 86.7235 18.304C87.4489 18.2613 88.1849 18.24 88.9315 18.24C89.2089 18.24 89.4115 18.1653 89.5395 18.016C89.6675 17.8453 89.7315 17.6747 89.7315 17.504C89.7315 16.864 89.4222 16.32 88.8035 15.872C88.1849 15.424 87.4595 15.2 86.6275 15.2ZM101.054 16.064C101.545 15.1253 102.217 14.3467 103.07 13.728C103.924 13.1093 104.926 12.8 106.078 12.8C106.74 12.8 107.39 12.8853 108.03 13.056C108.67 13.2267 109.246 13.4933 109.758 13.856C110.292 14.2187 110.729 14.688 111.07 15.264C111.433 15.8187 111.668 16.48 111.774 17.248C111.838 17.8027 111.87 18.3893 111.87 19.008C111.892 19.6267 111.902 20.2453 111.902 20.864C111.924 21.5893 111.934 22.2613 111.934 22.88C111.934 23.4773 111.934 24.1387 111.934 24.864C111.934 25.3547 111.988 25.728 112.094 25.984C112.222 26.2187 112.372 26.3787 112.542 26.464C112.777 26.592 113.022 26.6773 113.278 26.72C113.556 26.7627 113.865 26.784 114.206 26.784L114.302 26.912L114.366 28L114.302 28.128C113.854 28.0853 113.353 28.0533 112.798 28.032C112.265 28.0107 111.742 28 111.23 28C110.718 28 110.206 28 109.694 28C109.182 28.0213 108.702 28.0533 108.254 28.096L108.03 27.456C108.094 27.1787 108.148 26.7627 108.19 26.208C108.254 25.6533 108.297 25.2053 108.318 24.864C108.361 24.0533 108.393 23.296 108.414 22.592C108.436 21.888 108.446 21.2587 108.446 20.704C108.446 20.2133 108.436 19.68 108.414 19.104C108.393 18.528 108.318 18.0267 108.19 17.6C108.02 16.9173 107.668 16.416 107.134 16.096C106.622 15.7547 106.025 15.584 105.342 15.584C104.702 15.584 104.116 15.7013 103.582 15.936C103.049 16.1707 102.59 16.4587 102.206 16.8C101.844 17.12 101.556 17.4613 101.342 17.824C101.129 18.1867 101.022 18.5067 101.022 18.784V22.08C101.022 22.5067 101.022 22.8587 101.022 23.136C101.022 23.392 101.022 23.616 101.022 23.808C101.044 24 101.054 24.1813 101.054 24.352C101.076 24.5013 101.097 24.672 101.118 24.864C101.161 25.312 101.246 25.6533 101.374 25.888C101.524 26.1013 101.684 26.2827 101.854 26.432C102.025 26.6027 102.228 26.7093 102.462 26.752C102.697 26.7733 102.974 26.784 103.294 26.784L103.454 26.944L103.518 28L103.454 28.128C103.305 28.128 103.081 28.1173 102.782 28.096C102.484 28.0747 102.164 28.0533 101.822 28.032C101.481 28.032 101.161 28.0213 100.862 28C100.564 28 100.34 28 100.19 28H98.4303C98.281 28 98.0463 28 97.7263 28C97.4276 28.0213 97.1076 28.032 96.7663 28.032C96.4463 28.0533 96.1263 28.0747 95.8063 28.096C95.5076 28.1173 95.2836 28.128 95.1343 28.128L95.1023 28L95.1663 26.912L95.2623 26.784C95.6036 26.784 95.9023 26.7733 96.1583 26.752C96.4356 26.7093 96.6596 26.6027 96.8303 26.432C96.9796 26.2827 97.1183 26.0907 97.2463 25.856C97.3743 25.6213 97.4596 25.2907 97.5023 24.864C97.5236 24.7147 97.5343 24.5653 97.5343 24.416C97.5556 24.2667 97.5663 24.1067 97.5663 23.936C97.5876 23.7653 97.5983 23.5627 97.5983 23.328C97.5983 23.0933 97.5983 22.8053 97.5983 22.464V19.168C97.5983 18.7627 97.5983 18.4213 97.5983 18.144C97.5983 17.8667 97.5876 17.6213 97.5663 17.408C97.5663 17.1947 97.5556 17.0027 97.5343 16.832C97.5343 16.6613 97.5236 16.48 97.5023 16.288C97.4596 16.0747 97.3956 15.872 97.3103 15.68C97.225 15.488 97.1503 15.36 97.0863 15.296C96.873 15.0187 96.6063 14.8587 96.2863 14.816C95.9663 14.7733 95.6356 14.752 95.2943 14.752L95.1663 14.624V13.536L95.2943 13.44H96.9263C97.417 13.44 97.9396 13.44 98.4943 13.44C99.0703 13.4187 99.5716 13.376 99.9983 13.312L101.118 13.152L101.31 13.76C101.14 13.9947 101.033 14.3253 100.99 14.752C100.969 15.1573 100.958 15.5733 100.958 16L101.054 16.064ZM120.98 25.44C120.98 25.8667 121.022 26.2507 121.108 26.592C121.193 26.9333 121.278 27.2213 121.364 27.456L121.172 28H119.7C119.486 28 119.177 28 118.772 28C118.388 28.0213 117.972 28.032 117.524 28.032C117.076 28.0533 116.649 28.0747 116.244 28.096C115.86 28.1173 115.561 28.128 115.348 28.128L115.316 28L115.38 26.912L115.476 26.784C115.774 26.784 116.073 26.7733 116.372 26.752C116.67 26.7093 116.905 26.6027 117.076 26.432C117.246 26.2827 117.374 26.0907 117.46 25.856C117.545 25.6213 117.588 25.2907 117.588 24.864V24.448C117.588 24.256 117.588 24.0747 117.588 23.904C117.609 23.7333 117.62 23.52 117.62 23.264C117.62 22.9867 117.62 22.6347 117.62 22.208C117.641 21.7813 117.652 21.216 117.652 20.512V13.152C117.652 12.2773 117.641 11.552 117.62 10.976C117.62 10.4 117.609 9.90933 117.588 9.504C117.588 9.09867 117.577 8.74667 117.556 8.448C117.556 8.14933 117.545 7.81867 117.524 7.456C117.502 7.22133 117.428 7.008 117.3 6.816C117.172 6.624 117.065 6.496 116.98 6.432C116.702 6.19733 116.404 6.05866 116.084 6.016C115.785 5.952 115.465 5.92 115.124 5.92L114.996 5.792V4.736L115.124 4.608H116.724C117.214 4.608 117.769 4.608 118.388 4.608C119.006 4.58667 119.529 4.544 119.956 4.48L121.076 4.32L121.268 4.928C121.225 5.01333 121.182 5.17333 121.14 5.408C121.118 5.62133 121.097 5.856 121.076 6.112C121.054 6.368 121.033 6.61333 121.012 6.848C121.012 7.08267 121.012 7.264 121.012 7.392C121.012 7.73333 121.012 8.04267 121.012 8.32C121.012 8.576 121.001 8.88533 120.98 9.248C120.98 9.61067 120.98 10.0693 120.98 10.624C120.98 11.1573 120.98 11.872 120.98 12.768C120.98 13.6853 120.969 14.3573 120.948 14.784C120.926 15.1893 120.905 15.52 120.884 15.776L120.98 15.84C121.598 14.944 122.356 14.2187 123.252 13.664C124.148 13.088 125.161 12.8 126.292 12.8C127.508 12.8 128.553 13.0133 129.428 13.44C130.324 13.8667 131.06 14.432 131.636 15.136C132.212 15.84 132.638 16.6507 132.916 17.568C133.193 18.464 133.332 19.4027 133.332 20.384C133.332 21.8347 133.108 23.072 132.66 24.096C132.212 25.0987 131.636 25.92 130.932 26.56C130.249 27.1787 129.492 27.6373 128.66 27.936C127.849 28.2133 127.07 28.352 126.324 28.352C125.3 28.352 124.329 28.128 123.412 27.68C122.516 27.232 121.737 26.464 121.076 25.376L120.98 25.44ZM129.588 20.48C129.588 19.84 129.502 19.2213 129.332 18.624C129.182 18.0053 128.948 17.4613 128.628 16.992C128.308 16.5013 127.892 16.1173 127.38 15.84C126.889 15.5413 126.302 15.392 125.62 15.392C124.894 15.392 124.244 15.52 123.668 15.776C123.113 16.0107 122.633 16.3093 122.228 16.672C121.844 17.0133 121.534 17.376 121.3 17.76C121.086 18.144 120.969 18.4747 120.948 18.752V22.304C120.99 22.5813 121.108 22.9227 121.3 23.328C121.513 23.712 121.801 24.096 122.164 24.48C122.548 24.8427 123.017 25.152 123.572 25.408C124.126 25.664 124.788 25.792 125.556 25.792C126.26 25.792 126.868 25.6427 127.38 25.344C127.892 25.024 128.308 24.6187 128.628 24.128C128.969 23.6373 129.214 23.072 129.364 22.432C129.513 21.792 129.588 21.1413 129.588 20.48ZM144.503 27.776C144.567 27.584 144.609 27.3067 144.631 26.944C144.673 26.5813 144.727 26.2507 144.791 25.952L144.759 25.856C144.503 26.176 144.204 26.4853 143.863 26.784C143.543 27.0827 143.18 27.3493 142.775 27.584C142.369 27.8187 141.932 28 141.463 28.128C141.015 28.2773 140.535 28.352 140.023 28.352C139.255 28.352 138.583 28.2347 138.007 28C137.431 27.7653 136.951 27.456 136.567 27.072C136.183 26.688 135.884 26.24 135.671 25.728C135.479 25.216 135.383 24.6827 135.383 24.128C135.383 23.296 135.564 22.5707 135.927 21.952C136.289 21.3333 136.769 20.832 137.367 20.448C137.921 20.0853 138.572 19.808 139.319 19.616C140.065 19.4027 140.791 19.2427 141.495 19.136C142.199 19.0293 142.839 18.9653 143.415 18.944C143.991 18.9013 144.375 18.88 144.567 18.88H145.015C144.993 18.2187 144.951 17.7067 144.887 17.344C144.823 16.96 144.737 16.64 144.631 16.384C144.439 15.9573 144.119 15.6587 143.671 15.488C143.244 15.296 142.732 15.2 142.135 15.2C141.772 15.2 141.377 15.232 140.951 15.296C140.545 15.3387 140.161 15.4347 139.799 15.584C139.436 15.7333 139.116 15.9467 138.839 16.224C138.583 16.48 138.433 16.8213 138.391 17.248L138.263 17.344H137.239L136.951 14.336L137.047 14.144C137.175 14.016 137.42 13.8773 137.783 13.728C138.145 13.5787 138.583 13.44 139.095 13.312C139.607 13.1627 140.161 13.0453 140.759 12.96C141.377 12.8533 141.996 12.8 142.615 12.8C143.447 12.8 144.225 12.9067 144.951 13.12C145.676 13.312 146.295 13.6107 146.807 14.016C147.34 14.4213 147.756 14.9333 148.055 15.552C148.353 16.1493 148.503 16.8533 148.503 17.664C148.503 18.5387 148.492 19.2853 148.471 19.904C148.471 20.5227 148.46 21.0987 148.439 21.632C148.417 22.1653 148.396 22.688 148.375 23.2C148.375 23.6907 148.375 24.2453 148.375 24.864C148.417 25.3547 148.471 25.7067 148.535 25.92C148.599 26.1333 148.705 26.304 148.855 26.432C149.025 26.6027 149.281 26.7093 149.623 26.752C149.985 26.7733 150.316 26.784 150.615 26.784L150.711 26.912L150.775 28L150.743 28.128C150.38 28.0853 149.964 28.0533 149.495 28.032C149.025 28.0107 148.588 28 148.183 28C147.585 28 146.988 28 146.391 28C145.793 28.0213 145.228 28.0533 144.695 28.096L144.503 27.776ZM144.503 24.32C144.567 24.2133 144.631 24.0853 144.695 23.936C144.78 23.7867 144.833 23.6053 144.855 23.392L145.015 20.672H144.727C144.065 20.672 143.415 20.7147 142.775 20.8C142.135 20.8853 141.559 21.0453 141.047 21.28C140.535 21.5147 140.119 21.8453 139.799 22.272C139.479 22.6987 139.319 23.2533 139.319 23.936C139.319 24.512 139.457 24.9707 139.735 25.312C140.033 25.6533 140.428 25.824 140.919 25.824C141.281 25.824 141.644 25.7813 142.007 25.696C142.391 25.5893 142.743 25.4613 143.063 25.312C143.383 25.1627 143.671 25.0027 143.927 24.832C144.183 24.64 144.375 24.4693 144.503 24.32ZM160.304 31.712C160.048 32.352 159.707 32.928 159.28 33.44C158.875 33.9733 158.405 34.432 157.872 34.816C157.339 35.2 156.773 35.5093 156.176 35.744C155.579 36 154.971 36.1707 154.352 36.256C154.181 36.2987 153.979 36.32 153.744 36.32C153.531 36.32 153.211 36.32 152.784 36.32L152.56 36.256L152.464 34.624L152.592 34.464H153.04C153.296 34.464 153.573 34.432 153.872 34.368C154.171 34.3253 154.459 34.2293 154.736 34.08C155.355 33.7813 155.92 33.3547 156.432 32.8C156.965 32.2453 157.328 31.712 157.52 31.2L158.416 28.8L155.856 22.944C155.749 22.7093 155.579 22.2933 155.344 21.696C155.109 21.0987 154.843 20.448 154.544 19.744C154.245 19.0187 153.925 18.304 153.584 17.6C153.264 16.896 152.965 16.3093 152.688 15.84C152.475 15.4987 152.229 15.232 151.952 15.04C151.696 14.848 151.344 14.7307 150.896 14.688L150.704 14.528V13.44L150.832 13.312C151.195 13.3547 151.579 13.3973 151.984 13.44C152.389 13.4827 152.763 13.504 153.104 13.504H155.632C155.952 13.504 156.336 13.4827 156.784 13.44C157.253 13.3973 157.68 13.3547 158.064 13.312L158.192 13.44V14.464L158.064 14.592C157.659 14.6347 157.307 14.7627 157.008 14.976C156.731 15.168 156.592 15.456 156.592 15.84C156.592 16.096 156.677 16.5227 156.848 17.12C157.04 17.696 157.253 18.3147 157.488 18.976C157.744 19.6373 157.979 20.256 158.192 20.832C158.427 21.3867 158.576 21.76 158.64 21.952L160.016 25.824L161.616 21.952C161.765 21.6107 161.947 21.184 162.16 20.672C162.373 20.1387 162.576 19.584 162.768 19.008C162.981 18.432 163.163 17.8667 163.312 17.312C163.461 16.7573 163.536 16.2667 163.536 15.84C163.536 15.3707 163.376 15.0613 163.056 14.912C162.736 14.7413 162.395 14.6347 162.032 14.592L161.904 14.464V13.44L162.032 13.312C162.437 13.3973 162.821 13.4507 163.184 13.472C163.547 13.4933 163.888 13.504 164.208 13.504H166.8C167.163 13.504 167.515 13.4827 167.856 13.44C168.219 13.3973 168.603 13.3547 169.008 13.312L169.136 13.44V14.528L168.944 14.688C168.581 14.7307 168.261 14.8373 167.984 15.008C167.728 15.1787 167.483 15.456 167.248 15.84C166.928 16.352 166.565 17.0133 166.16 17.824C165.776 18.6133 165.392 19.4133 165.008 20.224C164.645 21.0347 164.315 21.7707 164.016 22.432C163.717 23.0933 163.525 23.552 163.44 23.808L160.304 31.712Z" fill="#111827"/>
    <defs>
    <linearGradient id="paint0_linear_1548_2371" x1="0" y1="19" x2="24.8" y2="19" gradientUnits="userSpaceOnUse">
    <stop stop-color="#8863F1"/>
    <stop offset="1" stop-color="#6366F1"/>
    </linearGradient>
    <linearGradient id="paint1_linear_1548_2371" x1="0" y1="19" x2="24.8" y2="19" gradientUnits="userSpaceOnUse">
    <stop stop-color="#8863F1"/>
    <stop offset="1" stop-color="#6366F1"/>
    </linearGradient>
    <linearGradient id="paint2_linear_1548_2371" x1="0" y1="19" x2="24.8" y2="19" gradientUnits="userSpaceOnUse">
    <stop stop-color="#8863F1"/>
    <stop offset="1" stop-color="#6366F1"/>
    </linearGradient>
    <linearGradient id="paint3_linear_1548_2371" x1="0" y1="19" x2="24.8" y2="19" gradientUnits="userSpaceOnUse">
    <stop stop-color="#8863F1"/>
    <stop offset="1" stop-color="#6366F1"/>
    </linearGradient>
    </defs>
    </svg>
    