<svg width="101" height="75" viewBox="0 0 101 75" fill="none" xmlns="http://www.w3.org/2000/svg">
<rect width="3.1317" height="3.13172" transform="matrix(0.707116 0.707097 -0.707116 0.707097 2.2146 0)" fill="#06B6D4"/>
<rect width="3.1317" height="3.13172" transform="matrix(0.707116 0.707097 -0.707116 0.707097 21.4348 0)" fill="#06B6D4"/>
<rect width="3.1317" height="3.13172" transform="matrix(0.707116 0.707097 -0.707116 0.707097 40.6553 0)" fill="#06B6D4"/>
<rect width="3.1317" height="3.13172" transform="matrix(0.707116 0.707097 -0.707116 0.707097 59.8757 0)" fill="#06B6D4"/>
<rect width="3.1317" height="3.13172" transform="matrix(0.707116 0.707097 -0.707116 0.707097 79.0962 0)" fill="#06B6D4"/>
<rect width="3.1317" height="3.13172" transform="matrix(0.707116 0.707097 -0.707116 0.707097 98.3164 0)" fill="#06B6D4"/>
<rect width="3.1317" height="3.13172" transform="matrix(0.707116 0.707097 -0.707116 0.707097 2.2146 17.5488)" fill="#06B6D4"/>
<rect width="3.1317" height="3.13172" transform="matrix(0.707116 0.707097 -0.707116 0.707097 2.2146 35.0986)" fill="#06B6D4"/>
<rect width="3.1317" height="3.13172" transform="matrix(0.707116 0.707097 -0.707116 0.707097 2.2146 52.6475)" fill="#06B6D4"/>
<rect width="3.1317" height="3.13172" transform="matrix(0.707116 0.707097 -0.707116 0.707097 2.2146 70.1963)" fill="#06B6D4"/>
<rect width="3.1317" height="3.13172" transform="matrix(0.707116 0.707097 -0.707116 0.707097 21.4348 17.5488)" fill="#06B6D4"/>
<rect width="3.1317" height="3.13172" transform="matrix(0.707116 0.707097 -0.707116 0.707097 21.4348 35.0986)" fill="#06B6D4"/>
<rect width="3.1317" height="3.13172" transform="matrix(0.707116 0.707097 -0.707116 0.707097 21.4348 52.6475)" fill="#06B6D4"/>
<rect width="3.1317" height="3.13172" transform="matrix(0.707116 0.707097 -0.707116 0.707097 21.4348 70.1963)" fill="#06B6D4"/>
<rect width="3.1317" height="3.13172" transform="matrix(0.707116 0.707097 -0.707116 0.707097 40.6553 17.5488)" fill="#06B6D4"/>
<rect width="3.1317" height="3.13172" transform="matrix(0.707116 0.707097 -0.707116 0.707097 40.6553 35.0986)" fill="#06B6D4"/>
<rect width="3.1317" height="3.13172" transform="matrix(0.707116 0.707097 -0.707116 0.707097 40.6553 52.6475)" fill="#06B6D4"/>
<rect width="3.1317" height="3.13172" transform="matrix(0.707116 0.707097 -0.707116 0.707097 40.6553 70.1963)" fill="#06B6D4"/>
<rect width="3.1317" height="3.13172" transform="matrix(0.707116 0.707097 -0.707116 0.707097 59.8757 17.5488)" fill="#06B6D4"/>
<rect width="3.1317" height="3.13172" transform="matrix(0.707116 0.707097 -0.707116 0.707097 59.8757 35.0986)" fill="#06B6D4"/>
<rect width="3.1317" height="3.13172" transform="matrix(0.707116 0.707097 -0.707116 0.707097 59.8757 52.6475)" fill="#06B6D4"/>
<rect width="3.1317" height="3.13172" transform="matrix(0.707116 0.707097 -0.707116 0.707097 59.8757 70.1963)" fill="#06B6D4"/>
<rect width="3.1317" height="3.13172" transform="matrix(0.707116 0.707097 -0.707116 0.707097 79.0962 17.5488)" fill="#06B6D4"/>
<rect width="3.1317" height="3.13172" transform="matrix(0.707116 0.707097 -0.707116 0.707097 79.0962 35.0986)" fill="#06B6D4"/>
<rect width="3.1317" height="3.13172" transform="matrix(0.707116 0.707097 -0.707116 0.707097 79.0962 52.6475)" fill="#06B6D4"/>
<rect width="3.1317" height="3.13172" transform="matrix(0.707116 0.707097 -0.707116 0.707097 79.0962 70.1963)" fill="#06B6D4"/>
<rect width="3.1317" height="3.13172" transform="matrix(0.707116 0.707097 -0.707116 0.707097 98.3164 17.5488)" fill="#06B6D4"/>
<rect width="3.1317" height="3.13172" transform="matrix(0.707116 0.707097 -0.707116 0.707097 98.3164 35.0986)" fill="#06B6D4"/>
<rect width="3.1317" height="3.13172" transform="matrix(0.707116 0.707097 -0.707116 0.707097 98.3164 52.6475)" fill="#06B6D4"/>
<rect width="3.1317" height="3.13172" transform="matrix(0.707116 0.707097 -0.707116 0.707097 98.3164 70.1963)" fill="#06B6D4"/>
</svg>
