<svg width="10" height="10" viewBox="0 0 10 10" fill="none"
                                             xmlns="http://www.w3.org/2000/svg">
                                             <path
                                                d="M2.5149 9.5H0.649005V3.49121H2.5149V9.5ZM1.58083 2.67157C0.984255 2.67157 0.500183 2.17721 0.500183 1.58064C0.500183 1.29404 0.614036 1.01917 0.816696 0.816513C1.01936 0.613853 1.29422 0.5 1.58083 0.5C1.86743 0.5 2.1423 0.613853 2.34496 0.816513C2.54762 1.01917 2.66147 1.29404 2.66147 1.58064C2.66147 2.17721 2.1774 2.67157 1.58083 2.67157ZM7.63654 9.5V6.575C7.63654 5.87782 7.6224 4.98393 6.66647 4.98393C5.6964 4.98393 5.54758 5.74121 5.54758 6.52486V9.5H3.68361V3.49121H5.47301V4.31086H5.49904C5.74815 3.83868 6.35662 3.34046 7.26433 3.34046C9.15272 3.34046 9.49987 4.58407 9.49987 6.19925V9.5H7.63654Z"
                                                fill="white"></path>
                                          </svg>