<svg width="12" height="13" viewBox="0 0 12 13" fill="none"
                                 xmlns="http://www.w3.org/2000/svg">
                                 <path
                                    d="M10 8.82653C9.525 8.82653 9.08667 8.97959 8.74333 9.2352L5.29 6.94082C5.34782 6.64934 5.34782 6.35066 5.29 6.05918L8.74333 3.7648C9.08667 4.02041 9.525 4.17347 10 4.17347C11.1033 4.17347 12 3.35 12 2.33673C12 1.32347 11.1033 0.5 10 0.5C8.89667 0.5 8 1.32347 8 2.33673C8 2.51429 8.02667 2.68418 8.07833 2.84643L4.79833 5.02755C4.31167 4.4352 3.53833 4.05102 2.66667 4.05102C1.19333 4.05102 0 5.14694 0 6.5C0 7.85306 1.19333 8.94898 2.66667 8.94898C3.53833 8.94898 4.31167 8.5648 4.79833 7.97245L8.07833 10.1536C8.02667 10.3158 8 10.4872 8 10.6633C8 11.6765 8.89667 12.5 10 12.5C11.1033 12.5 12 11.6765 12 10.6633C12 9.65 11.1033 8.82653 10 8.82653ZM10 1.54082C10.4783 1.54082 10.8667 1.89745 10.8667 2.33673C10.8667 2.77602 10.4783 3.13265 10 3.13265C9.52167 3.13265 9.13333 2.77602 9.13333 2.33673C9.13333 1.89745 9.52167 1.54082 10 1.54082ZM2.66667 7.84694C1.85833 7.84694 1.2 7.24235 1.2 6.5C1.2 5.75765 1.85833 5.15306 2.66667 5.15306C3.475 5.15306 4.13333 5.75765 4.13333 6.5C4.13333 7.24235 3.475 7.84694 2.66667 7.84694ZM10 11.4592C9.52167 11.4592 9.13333 11.1026 9.13333 10.6633C9.13333 10.224 9.52167 9.86735 10 9.86735C10.4783 9.86735 10.8667 10.224 10.8667 10.6633C10.8667 11.1026 10.4783 11.4592 10 11.4592Z"
                                    fill="#22C55E"></path>
                              </svg>