<svg
                                 width="12" height="13" viewBox="0 0 12 13" fill="none"
                                 xmlns="http://www.w3.org/2000/svg">
                                 <path
                                    d="M11.6764 5.94248C11.811 5.83746 11.9108 5.69094 11.9619 5.52348C12.0129 5.35602 12.0127 5.17601 11.9612 5.00869C11.9097 4.84138 11.8095 4.69514 11.6747 4.5905C11.5399 4.48585 11.3772 4.42804 11.2094 4.42517L7.95128 4.2962C7.93526 4.29504 7.9199 4.28905 7.90706 4.27895C7.89421 4.26886 7.88442 4.25509 7.87888 4.2393L6.753 1.05293C6.69643 0.89082 6.59369 0.750839 6.45868 0.651939C6.32367 0.55304 6.16292 0.5 5.99819 0.5C5.83346 0.5 5.67271 0.55304 5.5377 0.651939C5.40269 0.750839 5.29995 0.89082 5.24338 1.05293L4.12113 4.25068C4.11558 4.26647 4.10579 4.28024 4.09295 4.29033C4.0801 4.30043 4.06474 4.30642 4.04872 4.30758L0.790557 4.43655C0.622799 4.43942 0.460106 4.49723 0.325288 4.60188C0.190471 4.70652 0.09029 4.85276 0.0387928 5.02007C-0.0127043 5.18739 -0.0129354 5.3674 0.0381321 5.53486C0.0891995 5.70232 0.189005 5.84884 0.323553 5.95386L2.8794 8.05914C2.89219 8.06969 2.90175 8.08393 2.9069 8.10011C2.91205 8.1163 2.91256 8.1337 2.90836 8.15018L2.02866 11.4162C1.98307 11.5825 1.98749 11.7595 2.04131 11.9231C2.09513 12.0867 2.19573 12.2289 2.32944 12.3305C2.46315 12.432 2.62347 12.488 2.78859 12.4907C2.95371 12.4934 3.11562 12.4427 3.25228 12.3456L5.95294 10.4489C5.96624 10.4393 5.98202 10.4341 5.99819 10.4341C6.01436 10.4341 6.03014 10.4393 6.04344 10.4489L8.7441 12.3456C8.87892 12.446 9.04024 12.5 9.20567 12.5C9.3711 12.5 9.53243 12.446 9.66725 12.3456C9.80099 12.245 9.90169 12.1034 9.9555 11.9404C10.0093 11.7773 10.0136 11.6009 9.96772 11.4352L9.08078 8.15777C9.07608 8.14131 9.07634 8.12374 9.08152 8.10745C9.0867 8.09116 9.09656 8.07694 9.10974 8.06673L11.6764 5.94248Z"
                                    fill="#EAB308"></path>
                                    </svg>