<svg width="38" height="38" viewBox="0 0 38 38" fill="none" xmlns="http://www.w3.org/2000/svg">
<path fill-rule="evenodd" clip-rule="evenodd" d="M0.651129 19.1367C10.928 19.0878 19.2461 10.8072 19.2657 0.592236C19.2849 10.6462 27.3431 18.8262 37.3956 19.1283L37.3951 19.1451C27.5222 19.442 19.5732 27.3379 19.2744 37.1447C19.2686 37.1449 19.2628 37.1451 19.257 37.1453C18.9536 27.1781 10.7477 19.1847 0.651129 19.1367ZM0.46822 19.1367C0.311684 19.1359 0.155604 19.1333 0 19.1288C0.000156532 19.134 0.00031529 19.1393 0.000476273 19.1446C0.155922 19.1401 0.311844 19.1374 0.46822 19.1367ZM19.2738 0.000481984C19.2687 0.172956 19.266 0.34602 19.2657 0.519642C19.2653 0.345857 19.2626 0.172632 19.2575 0L19.2738 0.000481984Z" fill="#EEF2FF"/>
</svg>
