<svg width="10" height="10" viewBox="0 0 10 10" fill="none"
                                             xmlns="http://www.w3.org/2000/svg">
                                             <path fill-rule="evenodd" clip-rule="evenodd"
                                                d="M8.54297 1.45342C8.08171 0.991339 7.53291 0.624941 6.92836 0.375456C6.32381 0.125972 5.67553 -0.00163956 5.02107 1.59026e-05C2.27676 1.59026e-05 0.0427065 2.22291 0.0415973 4.9553C0.0415973 5.82856 0.270659 6.68084 0.706044 7.43266L0 10L2.63948 9.31056C3.3696 9.70611 4.18757 9.91353 5.01885 9.91389H5.02107C7.76482 9.91389 9.99887 7.69099 9.99998 4.95861C10.0019 4.30752 9.87407 3.66251 9.62398 3.06087C9.3739 2.45923 9.00648 1.91289 8.54297 1.45342V1.45342ZM5.02107 9.07761H5.0194C4.27815 9.07769 3.55054 8.8792 2.91292 8.50298L2.76206 8.41356L1.19578 8.82259L1.61342 7.30294L1.51525 7.14728C1.10082 6.49063 0.881436 5.73073 0.882416 4.9553C0.883526 2.68438 2.73987 0.836844 5.02273 0.836844C5.56641 0.835642 6.10492 0.941768 6.60711 1.14908C7.10931 1.3564 7.5652 1.66078 7.9484 2.04461C8.33366 2.42662 8.63902 2.88083 8.84684 3.381C9.05466 3.88117 9.16081 4.41737 9.15916 4.95861C9.15805 7.22953 7.3017 9.07761 5.02107 9.07761ZM7.29117 5.9925C7.16637 5.93012 6.55517 5.63094 6.44092 5.58954C6.32722 5.54814 6.24458 5.52772 6.16139 5.65136C6.07819 5.77501 5.8397 6.05377 5.76704 6.13657C5.69439 6.21937 5.62173 6.22931 5.49749 6.16748C5.37326 6.10566 4.97226 5.97484 4.49694 5.55311C4.127 5.22467 3.87742 4.8195 3.80476 4.69531C3.73211 4.57111 3.797 4.50431 3.85967 4.44249C3.91569 4.38729 3.98391 4.29787 4.04603 4.22556C4.10814 4.15324 4.12867 4.10191 4.17026 4.01911C4.21186 3.93631 4.19134 3.864 4.15973 3.80217C4.12867 3.7398 3.87964 3.13039 3.77592 2.88255C3.67553 2.64243 3.57293 2.67444 3.49639 2.67113C3.41712 2.6679 3.33779 2.66643 3.25845 2.66671C3.19537 2.66831 3.13329 2.68287 3.07612 2.70947C3.01895 2.73606 2.96792 2.77413 2.92623 2.82127C2.81197 2.94547 2.49084 3.24466 2.49084 3.85406C2.49084 4.46347 2.93677 5.05245 2.99888 5.13525C3.061 5.21805 3.87631 6.46832 5.12423 7.00486C5.42151 7.13237 5.65334 7.20855 5.8336 7.26596C6.13143 7.36035 6.40265 7.34655 6.61729 7.31509C6.85634 7.27976 7.35328 7.0159 7.457 6.72666C7.56072 6.43741 7.56072 6.18956 7.52966 6.13767C7.4986 6.08579 7.41485 6.05432 7.29117 5.9925"
                                                fill="white"></path>
                                          </svg>